<svg id="图层_1" data-name="图层 1" xmlns="http://www.w3.org/2000/svg" xmlns:xlink="http://www.w3.org/1999/xlink" viewBox="0 0 783.02 107.44"><defs><style>.cls-1{fill:#494b68;}.cls-2{fill:url(#未命名的渐变);}.cls-3{fill:url(#未命名的渐变_2);}.cls-4{fill:url(#未命名的渐变_3);}.cls-5{fill:url(#未命名的渐变_4);}.cls-6{fill:url(#未命名的渐变_5);}.cls-7{fill:url(#未命名的渐变_6);}.cls-8{fill:url(#未命名的渐变_7);}.cls-9{fill:url(#未命名的渐变_8);}.cls-10{fill:url(#未命名的渐变_9);}.cls-11{fill:url(#未命名的渐变_10);}.cls-12{fill:url(#未命名的渐变_11);}.cls-13{fill:url(#未命名的渐变_60);}</style><linearGradient id="未命名的渐变" x1="165.66" y1="1403.28" x2="273.1" y2="1403.28" gradientTransform="translate(-105.39 -1349.56)" gradientUnits="userSpaceOnUse"><stop offset="0" stop-color="#fda9ff"/><stop offset="1" stop-color="#039cff"/></linearGradient><linearGradient id="未命名的渐变_2" x1="159.63" y1="1403.28" x2="279.13" y2="1403.28" xlink:href="#未命名的渐变"/><linearGradient id="未命名的渐变_3" x1="153.67" y1="1403.27" x2="285.18" y2="1403.27" xlink:href="#未命名的渐变"/><linearGradient id="未命名的渐变_4" x1="147.64" y1="1403.27" x2="291.26" y2="1403.27" xlink:href="#未命名的渐变"/><linearGradient id="未命名的渐变_5" x1="141.61" y1="1403.27" x2="297.26" y2="1403.27" xlink:href="#未命名的渐变"/><linearGradient id="未命名的渐变_6" x1="135.52" y1="1403.28" x2="303.25" y2="1403.28" xlink:href="#未命名的渐变"/><linearGradient id="未命名的渐变_7" x1="129.45" y1="1403.25" x2="309.26" y2="1403.25" xlink:href="#未命名的渐变"/><linearGradient id="未命名的渐变_8" x1="123.45" y1="1403.27" x2="315.31" y2="1403.27" xlink:href="#未命名的渐变"/><linearGradient id="未命名的渐变_9" x1="117.45" y1="1403.28" x2="321.33" y2="1403.28" xlink:href="#未命名的渐变"/><linearGradient id="未命名的渐变_10" x1="111.39" y1="1403.26" x2="327.38" y2="1403.26" xlink:href="#未命名的渐变"/><linearGradient id="未命名的渐变_11" x1="105.39" y1="1403.28" x2="333.45" y2="1403.28" xlink:href="#未命名的渐变"/><linearGradient id="未命名的渐变_60" x1="552.8" y1="78.33" x2="781.89" y2="78.33" gradientUnits="userSpaceOnUse"><stop offset="0" stop-color="#d4a7ff"/><stop offset="0.45" stop-color="#977fff"/><stop offset="0.86" stop-color="#72ecfb"/></linearGradient></defs><path class="cls-1" d="M298.64,40.1V25.79h-38A4.82,4.82,0,0,1,255.82,21h0V7.55h3.93V21.86h38.93V7.55h3.85V40.1Z" transform="translate(0 0)"/><path class="cls-1" d="M331.61,40a16.26,16.26,0,0,1,0-32.51l30.45.14v3.93l-30.49-.12a12.32,12.32,0,1,0,0,24.64l30.49.13v3.94Zm2.33-14.13V21.94l28.16.12V26Z" transform="translate(0 0)"/><path class="cls-1" d="M399.82,40.1a4.86,4.86,0,0,1-3.48-1.48l-.14-.14L377.61,9.35l3.32-2.12,18.89,29.61L418.7,7.24l3.36,2.11L403.43,38.44l-.13.14A4.88,4.88,0,0,1,399.82,40.1Z" transform="translate(0 0)"/><path class="cls-1" d="M449.59,40a16.26,16.26,0,0,1,0-32.51l30.47.09v3.93l-30.49-.13a12.33,12.33,0,0,0,0,24.65l30.49.13v3.93Zm2.32-14.14v-4l28.15.11v4Z" transform="translate(0 0)"/><path class="cls-1" d="M514.59,40.18a4.84,4.84,0,0,1-4.82-4.83V26.72a4.82,4.82,0,0,1,4.82-4.82h15.65a5.29,5.29,0,0,0,5.25-5.28v-.18a5,5,0,0,0-5-5h-34V40.22h-3.93V12.29a4.82,4.82,0,0,1,4.82-4.82h33a9,9,0,0,1,9,9v.19a9.22,9.22,0,0,1-9.18,9.21H513.7V36.24h24.36v3.94Z" transform="translate(0 0)"/><path class="cls-1" d="M558.26,40.09a4.82,4.82,0,0,1-4.83-4.81h0V7.55h3.93V36.16h42.7v3.93Z" transform="translate(0 0)"/><path class="cls-1" d="M656.94,40.09V27.34H628.36v-3.9h28.58v-12H618V40.05h-3.94V12.38a4.83,4.83,0,0,1,4.83-4.83h37.17a4.84,4.84,0,0,1,4.82,4.83V40.09Z" transform="translate(0 0)"/><path class="cls-1" d="M716.86,40.26a4.82,4.82,0,0,1-2.23-.56l-.18-.09L678.82,10.44V40.13h-3.94V12.22a4.81,4.81,0,0,1,4.79-4.83h0a4.92,4.92,0,0,1,2.25.55l.17.09,35.64,29.2V7.54h3.93v27.9a4.78,4.78,0,0,1-2.32,4.13A4.9,4.9,0,0,1,716.86,40.26Z" transform="translate(0 0)"/><path class="cls-1" d="M735.69,40.1V23.31h3.94V36.17h26.68a12.32,12.32,0,1,0,0-24.64H735.69V7.59h30.62a16.26,16.26,0,0,1,.9,32.51H735.69Z" transform="translate(0 0)"/><path class="cls-2" d="M114,107.44a53.72,53.72,0,1,1,53.72-53.72h0A53.77,53.77,0,0,1,114,107.44Zm0-105.7a52,52,0,1,0,52,52h0A52,52,0,0,0,114,1.74Z" transform="translate(0 0)"/><path class="cls-3" d="M114,104v-1.7c32,0,58-21.8,58-48.58S146,5.14,114,5.14,56,26.93,56,53.71s26,48.58,58,48.59V104c-33,0-59.76-22.58-59.76-50.33S81.06,3.44,114,3.44,173.74,26,173.74,53.77,146.94,104,114,104Z" transform="translate(0 0)"/><path class="cls-4" d="M114.06,100.64h0c-36.27,0-65.78-21-65.78-46.93S77.73,6.79,114,6.79s65.79,21,65.79,46.93S150.27,100.64,114.06,100.64Zm0-92.11c-35.31,0-64,20.27-64,45.18s28.67,45.19,64,45.19h0c35.3,0,64-20.27,64-45.18S149.35,8.53,114.06,8.53Z" transform="translate(0 0)"/><path class="cls-5" d="M114.06,97.24h0c-39.59,0-71.81-19.53-71.81-43.54S74.45,10.19,114,10.19s71.83,19.53,71.83,43.53S153.6,97.24,114.06,97.24Zm0-85.31C75.38,11.93,44,30.67,44,53.7s31.43,41.8,70.1,41.8h0c38.62,0,70-18.74,70-41.78S152.66,11.93,114.06,11.93Z" transform="translate(0 0)"/><path class="cls-6" d="M114.06,93.84h0c-42.92,0-77.84-18-77.84-40.14S71.06,13.58,114,13.58s77.88,18,77.88,40.14S156.93,93.84,114.06,93.84Zm0-78.51c-20.37,0-39.55,4.09-54,11.53C45.8,34.16,38,43.69,38,53.7s7.84,19.56,22.09,26.86C74.53,88,93.72,92.1,114.06,92.1h0c20.34,0,39.51-4.1,54-11.53,14.2-7.3,22-16.84,22-26.85s-7.8-19.55-22-26.86C153.56,19.44,134.37,15.33,114.06,15.33Z" transform="translate(0 0)"/><path class="cls-7" d="M114.06,90.44H114C67.75,90.44,30.13,74,30.13,53.7S67.72,17,113.93,17s83.93,16.47,83.93,36.73S160.27,90.44,114.06,90.44ZM114,18.73c-44.54,0-82.12,16-82.12,35s37.61,35,82.12,35l.06.87v-.87c44.49,0,82.06-16,82.06-35s-37.59-35-82.13-35Z" transform="translate(0 0)"/><path class="cls-8" d="M114.06,87H114C64.42,87,24.06,72,24.06,53.69s40.29-33.31,89.81-33.31,90,15,90,33.35S163.6,87,114.06,87ZM114,22.08c-47.83,0-88.16,14.46-88.16,31.57S66.21,85.3,114,85.3h.06c47.73,0,88.06-14.46,88.06-31.57S161.78,22.12,114,22.12Z" transform="translate(0 0)"/><path class="cls-9" d="M114.11,83.64H114c-25.26,0-49.23-3.12-67.48-8.78S18.06,61.64,18.06,53.69s10.1-15.46,28.43-21.14,42.16-8.77,67.39-8.77H114c25.25,0,49.21,3.12,67.46,8.78s28.46,13.21,28.46,21.17-10.1,15.45-28.42,21.14S139.34,83.64,114.11,83.64Zm-.23-58.12c-50.11,0-94.07,13.16-94.07,28.17S63.81,81.9,114,81.9h.11c50.11,0,94.06-13.17,94.06-28.17s-44-28.21-94.17-28.21Z" transform="translate(0 0)"/><path class="cls-10" d="M114.15,80.24H114c-26.78,0-52.24-2.77-71.7-7.81S12.06,60.72,12.06,53.68,22.77,40,42.25,35s44.85-7.8,71.59-7.8H114c26.77,0,52.23,2.78,71.68,7.81s30.26,11.71,30.26,18.75-10.72,13.71-30.21,18.71S140.89,80.24,114.15,80.24Zm-.31-51.32c-59,0-100.06,13-100.06,24.76S54.94,78.5,114,78.5h.15c59,0,100-13.06,100-24.77S173.06,28.92,114,28.92Z" transform="translate(0 0)"/><path class="cls-11" d="M114.21,76.84H114C55.46,76.84,6,66.23,6,53.68S55.35,30.57,113.77,30.57H114c58.53,0,108,10.61,108,23.16S172.63,76.84,114.21,76.84Zm-.43-44.53c-28.1,0-54.88,2.41-75.41,6.79C19.2,43.18,7.76,48.63,7.76,53.68S19.23,64.2,38.44,68.3C59,72.68,85.85,75.1,114,75.1h.21c28.09,0,54.87-2.41,75.41-6.79,19.17-4.08,30.61-9.53,30.61-14.58s-11.47-10.52-30.7-14.61C169,34.73,142.12,32.31,114,32.31Z" transform="translate(0 0)"/><path class="cls-12" d="M114.29,73.44H114c-61.81,0-114-9-114-19.77S52.06,34,113.73,34h.33c61.75,0,114,9,114,19.73S175.93,73.44,114.29,73.44Zm-.58-37.73c-29.55,0-57.84,2.07-79.66,5.83-23.83,4.1-32.32,9-32.32,12.13s8.51,8.06,32.41,12.18C56.06,69.62,84.38,71.7,114,71.7h.29c29.54,0,57.83-2.07,79.65-5.83,23.83-4.1,32.32-9,32.32-12.14s-8.52-8.06-32.42-12.17C172,37.79,143.61,35.71,114,35.71Z" transform="translate(0 0)"/><path class="cls-13" d="M639,76.49a5.25,5.25,0,0,1-3.87,6.32h0c-.21,0-.42.08-.61.11a4.08,4.08,0,0,1-.61,0,4.83,4.83,0,0,1-1.42-.21,4.93,4.93,0,0,1-1.32-.59,4.7,4.7,0,0,1-1.49-1.38,5.26,5.26,0,0,1-.86-1.84v0a3.15,3.15,0,0,1-.09-.42,3,3,0,0,1,0-.42v-.71a5.73,5.73,0,0,1,.23-1.26,4.74,4.74,0,0,1,.55-1.16,5,5,0,0,1,1.38-1.5,5.56,5.56,0,0,1,1.87-.84,5.25,5.25,0,0,1,2.05-.07,5.44,5.44,0,0,1,1.93.72,5.12,5.12,0,0,1,1.48,1.38,4.86,4.86,0,0,1,.84,1.85Zm100.24-3.08a6.12,6.12,0,0,0-3.82-1.3,5.66,5.66,0,0,0-3.77,1.3,6.08,6.08,0,0,0-2.14,3h11.82a5.74,5.74,0,0,0-.69-1.44A6.5,6.5,0,0,0,739.24,73.41Zm-53.89-.72a5.63,5.63,0,0,0-5.62,5.62,5.67,5.67,0,0,0,5.62,5.62,5.62,5.62,0,1,0,0-11.24Zm96.54-12.2V96.18a7.13,7.13,0,0,1-7.14,7.12H559.94a7.13,7.13,0,0,1-7.14-7.14V60.49a7.14,7.14,0,0,1,7.14-7.14H774.77A7.15,7.15,0,0,1,781.89,60.49ZM589,59H568.83V89H589V84.28H574V76.47h12.53V71.73H574v-8h15Zm20.56,19.3,5.68-10.16.31-.57h-5.15l-.11.19L607,73.7l-3.31-5.93-.13-.19H598.4l.31.57,5.68,10.16-5.68,10.14-.31.57h5.15l.13-.19L607,82.92l3.31,5.91.11.19h5.15l-.31-.57Zm34.15-2.93a9.78,9.78,0,0,0-1.64-3.59,9.43,9.43,0,0,0-2.87-2.68A10,10,0,0,0,636.66,68a9.67,9.67,0,0,0-2.77-.4,11.22,11.22,0,0,0-1.15.06c-.39.06-.78.13-1.15.21h0a12.67,12.67,0,0,0-1.83.61c-.38.18-.74.38-1.09.59V67.58h-4.88v30.2h4.88V86.36a10.13,10.13,0,0,0,3.61,1.32,9.88,9.88,0,0,0,3.94-.13,10.68,10.68,0,0,0,3.6-1.63,10.17,10.17,0,0,0,2.68-2.9,9.7,9.7,0,0,0,1.39-3.68A10.17,10.17,0,0,0,643.72,75.38Zm23,10.91-.29-.23-3-2.64-.23-.19-.23.19,0,0a3.88,3.88,0,0,1-1.53.8,3.57,3.57,0,0,1-1.72,0,3.61,3.61,0,0,1-2-1.3,3.55,3.55,0,0,1-.8-2.26V58.88h-4.65V81.12h0a8.32,8.32,0,0,0,6.39,7.67,8.27,8.27,0,0,0,3.57.06,8.08,8.08,0,0,0,3.24-1.43,4.17,4.17,0,0,0,.53-.41,5.11,5.11,0,0,0,.48-.45Zm29.38-8a10.64,10.64,0,0,0-.84-4.17,10.92,10.92,0,0,0-5.7-5.7,10.77,10.77,0,0,0-8.34,0,10.83,10.83,0,0,0-5.7,5.7,10.77,10.77,0,0,0,0,8.34,10.92,10.92,0,0,0,5.7,5.7,10.77,10.77,0,0,0,8.34,0,11,11,0,0,0,5.7-5.7A10.64,10.64,0,0,0,696.06,78.31Zm19.54-10h-.39a11,11,0,0,0-3.32.51,10.74,10.74,0,0,0-2.41,1.11V67.54h-5.17V89h5.17V79.19a5.72,5.72,0,0,1,5.73-5.72h.39ZM746.15,78.5A10.29,10.29,0,0,0,743.3,71a10.56,10.56,0,0,0-6.47-3.34c-.44,0-.86-.09-1.28-.1h-.15a11.11,11.11,0,0,0-3.89.69,10.37,10.37,0,0,0-3.4,2,10.6,10.6,0,0,0-3.42,8.09v.21a9.93,9.93,0,0,0,.86,4,10.37,10.37,0,0,0,2.33,3.31,10.82,10.82,0,0,0,3.39,2.24,10.58,10.58,0,0,0,4.15.84,10.43,10.43,0,0,0,5.68-1.6,10.62,10.62,0,0,0,4-4.46l.28-.57H740l-.12.13a5.92,5.92,0,0,1-2.62,1.66,6.17,6.17,0,0,1-3.16.14,5.94,5.94,0,0,1-2.88-1.48,6.35,6.35,0,0,1-1.59-2.41H746l0-.34A10.94,10.94,0,0,0,746.15,78.5Zm19.7-10.21h-.4a10.9,10.9,0,0,0-3.31.51,10.35,10.35,0,0,0-2.41,1.11V67.54h-5.18V89h5.18V79.19a5.7,5.7,0,0,1,5.72-5.72h.4Z" transform="translate(0 0)"/></svg>