
<svg width="219px" height="30px" viewBox="0 0 219 30" version="1.1" xmlns="http://www.w3.org/2000/svg" xmlns:xlink="http://www.w3.org/1999/xlink">
    <defs>
        <path d="M15.000162,0 C6.72902647,0 0,6.72870243 0,14.999838 L0,14.999838 C0,23.2712976 6.72902647,30 15.000162,30 L15.000162,30 C23.2712976,30 30.000324,23.2712976 30.000324,14.999838 L30.000324,14.999838 C30.000324,6.72870243 23.2712976,0 15.000162,0 Z M0.487032977,14.999838 C0.487032977,6.99765611 6.99765611,0.487032977 15.000162,0.487032977 L15.000162,0.487032977 C23.002992,0.487032977 29.5132911,6.99765611 29.5132911,14.999838 L29.5132911,14.999838 C29.5132911,23.0023439 23.002992,29.512967 15.000162,29.512967 L15.000162,29.512967 C6.99765611,29.512967 0.487032977,23.0023439 0.487032977,14.999838 L0.487032977,14.999838 Z" id="path-7_mb1fgeqt-1"></path>
        <linearGradient x1="-0.000108012357%" y1="50.0000529%" x2="100.000214%" y2="50.0000529%" id="linearGradient-7_mb1fgeqt-3">
            <stop stop-color="#FDA8FF" offset="0%"></stop>
            <stop stop-color="#029CFF" offset="100%"></stop>
        </linearGradient>
        <path d="M2.30244673e-15,14.0503991 C2.30244673e-15,21.7985332 7.48436504,28.1020944 16.685173,28.1020944 L16.685173,28.1020944 L16.6858211,27.8587399 L16.6858211,28.1020944 C25.8837126,28.1020944 33.3671056,21.7995053 33.3671056,14.0516953 L33.3671056,14.0516953 C33.3671056,6.30356121 25.8827405,0 16.6816085,0 L16.6816085,0 C7.48339292,0 2.30244673e-15,6.30258908 2.30244673e-15,14.0503991 L2.30244673e-15,14.0503991 Z M16.6838768,27.6153854 C7.75299467,27.6150614 0.487032977,21.5295795 0.487032977,14.0503991 L0.487032977,14.0503991 C0.487032977,6.57121872 7.75202255,0.487032977 16.6838768,0.487032977 L16.6838768,0.487032977 C25.6144349,0.487032977 32.8800726,6.57219084 32.8800726,14.0516953 L32.8800726,14.0516953 C32.8800726,21.5308757 25.615083,27.6153854 16.6858211,27.6153854 L16.6858211,27.6153854 L16.6858211,27.8587399 L16.6838768,27.6153854 Z" id="path-7_mb1fgeqt-4"></path>
        <linearGradient x1="-4.85568891e-07%" y1="50.0000574%" x2="100.000192%" y2="50.0000574%" id="linearGradient-7_mb1fgeqt-6">
            <stop stop-color="#FDA8FF" offset="0%"></stop>
            <stop stop-color="#029CFF" offset="100%"></stop>
        </linearGradient>
        <path d="M-2.30244673e-15,13.0999881 C-2.30244673e-15,20.3257688 8.23937957,26.2041888 18.3672676,26.2041888 L18.3672676,26.2041888 L18.3714801,26.2041888 C28.4964518,26.2041888 36.733563,20.327389 36.733563,13.1035526 L36.733563,13.1035526 C36.733563,5.87841998 28.4941835,0 18.3630551,0 L18.3630551,0 C8.23743533,0 -2.30244673e-15,5.87679978 -2.30244673e-15,13.0999881 M0.487032977,13.0999881 C0.487032977,6.14510537 8.506389,0.486708936 18.3672676,0.486708936 L18.3672676,0.486708936 C28.2258779,0.486708936 36.2465301,6.14672557 36.2465301,13.1035526 L36.2465301,13.1035526 C36.2465301,20.0587594 28.2278221,25.7171558 18.3714801,25.7171558 L18.3714801,25.7171558 L18.3672676,25.7171558 C8.5080092,25.7171558 0.487032977,20.0574632 0.487032977,13.0999881" id="path-7_mb1fgeqt-7"></path>
        <linearGradient x1="0.000352590397%" y1="50.0001845%" x2="100.000083%" y2="50.0001845%" id="linearGradient-7_mb1fgeqt-9">
            <stop stop-color="#FDA8FF" offset="0%"></stop>
            <stop stop-color="#029CFF" offset="100%"></stop>
        </linearGradient>
        <path d="M-2.30244673e-15,12.1511973 C-2.30244673e-15,18.8536525 8.99471814,24.3069312 20.0506583,24.3069312 L20.0506583,24.3069312 L20.0577872,24.3069312 C31.1091909,24.3069312 40.1003446,18.8562448 40.1003446,12.1557339 L40.1003446,12.1557339 C40.1003446,5.45327875 31.1059505,0 20.0435294,0 L20.0435294,0 C8.99147773,0 -2.30244673e-15,5.45068643 -2.30244673e-15,12.1511973 M0.487032977,12.1511973 C0.487032977,5.7196401 9.26010737,0.487357017 20.0506583,0.487357017 L20.0506583,0.487357017 C30.8373208,0.487357017 39.6129875,5.72190838 39.6129875,12.1557339 L39.6129875,12.1557339 C39.6129875,18.5872911 30.8405612,23.8195742 20.0577872,23.8195742 L20.0577872,23.8195742 L20.0506583,23.8195742 C9.26334777,23.8195742 0.487032977,18.5853469 0.487032977,12.1511973" id="path-7_mb1fgeqt-10"></path>
        <linearGradient x1="-0.000237735453%" y1="50.0002001%" x2="99.9994351%" y2="50.0002001%" id="linearGradient-7_mb1fgeqt-12">
            <stop stop-color="#FDA8FF" offset="0%"></stop>
            <stop stop-color="#029CFF" offset="100%"></stop>
        </linearGradient>
        <path d="M-2.30244673e-15,11.2014344 C-2.30244673e-15,17.3812121 9.74973267,22.4090256 21.7340491,22.4093497 L21.7340491,22.4093497 L21.7447424,22.4093497 C33.7225781,22.4093497 43.466802,17.3844525 43.466802,11.2079152 L43.466802,11.2079152 C43.466802,5.02813752 33.7173934,0 21.7223836,0 L21.7223836,0 C9.74487206,0 -2.30244673e-15,5.02522116 -2.30244673e-15,11.2014344 L-2.30244673e-15,11.2014344 Z M21.7340491,21.9223167 C16.0526458,21.9223167 10.695283,20.7781294 6.64898845,18.7013534 L6.64898845,18.7013534 C2.67527894,16.6618421 0.487032977,13.9982286 0.487032977,11.2014344 L0.487032977,11.2014344 C0.487032977,8.40626046 2.67430682,5.74426718 6.64574805,3.706052 L6.64574805,3.706052 C10.6894503,1.63024811 16.0438967,0.487357017 21.7340491,0.487357017 L21.7340491,0.487357017 C27.4148043,0.487357017 32.771519,1.63122023 36.8174895,3.70799624 L36.8174895,3.70799624 C40.7915231,5.74783163 42.979445,8.41112107 42.979445,11.2079152 L42.979445,11.2079152 C42.979445,14.0027651 40.7921712,16.6647584 36.82073,18.7036217 L36.82073,18.7036217 C32.7770277,20.7787775 27.4229053,21.9223167 21.7447424,21.9223167 L21.7447424,21.9223167 L21.7447424,22.1656711 L21.7340491,21.9223167 Z" id="path-7_mb1fgeqt-13"></path>
        <linearGradient x1="-0.000373117638%" y1="50.0000743%" x2="100.00007%" y2="50.0000743%" id="linearGradient-7_mb1fgeqt-15">
            <stop stop-color="#FDA8FF" offset="0%"></stop>
            <stop stop-color="#029CFF" offset="100%"></stop>
        </linearGradient>
        <path d="M0,10.2513475 C0,15.9087718 10.5050712,20.510796 23.4174399,20.510796 L23.4174399,20.510796 L23.434614,20.510796 C36.3366133,20.510796 46.8335836,15.9123362 46.8335836,10.2597725 L46.8335836,10.2597725 C46.8335836,4.60234821 36.3291604,0 23.4005898,0 L23.4005898,0 C10.4979423,0 0,4.59878377 0,10.2513475 L0,10.2513475 Z M23.4174399,20.024087 C10.9878917,20.024087 0.487357017,15.5484387 0.487357017,10.2513475 L0.487357017,10.2513475 C0.487357017,4.9584688 10.9801147,0.487032977 23.4174399,0.487032977 L23.4174399,0.487032977 C35.846664,0.487032977 46.3465506,4.96235729 46.3465506,10.2597725 L46.3465506,10.2597725 C46.3465506,15.5526512 35.8537929,20.024087 23.434614,20.024087 L23.434614,20.024087 L23.434614,20.2677655 L23.4174399,20.024087 Z" id="path-7_mb1fgeqt-16"></path>
        <linearGradient x1="0.000206877465%" y1="50.0000765%" x2="100.000069%" y2="50.0000765%" id="linearGradient-7_mb1fgeqt-18">
            <stop stop-color="#FDA8FF" offset="0%"></stop>
            <stop stop-color="#029CFF" offset="100%"></stop>
        </linearGradient>
        <path d="M2.30244673e-15,9.30158456 C2.30244673e-15,14.4356833 11.2604098,18.6132144 25.1008306,18.6132144 L25.1008306,18.6132144 L25.1248096,18.6132144 C38.9512967,18.6132144 50.200041,14.440868 50.200041,9.31130578 L50.200041,9.31130578 C50.200041,4.17753103 38.9409274,0.00032404057 25.0778237,0 L25.0778237,0 C11.2500405,0 2.30244673e-15,4.17267042 2.30244673e-15,9.30158456 M0.487032977,9.30158456 C0.487032977,4.5239304 11.7484149,0.487032977 25.1008306,0.487032977 L25.1008306,0.487032977 C38.442229,0.487357017 49.7130081,4.52846696 49.7130081,9.31130578 L49.7130081,9.31130578 C49.7130081,14.089608 38.4529223,18.1261814 25.1248096,18.1261814 L25.1248096,18.1261814 L25.1008306,18.1261814 C11.7591082,18.1261814 0.487032977,14.0847474 0.487032977,9.30158456" id="path-7_mb1fgeqt-19"></path>
        <linearGradient x1="0.000193197736%" y1="49.9999126%" x2="100.000187%" y2="49.9999126%" id="linearGradient-7_mb1fgeqt-21">
            <stop stop-color="#FDA8FF" offset="0%"></stop>
            <stop stop-color="#029CFF" offset="100%"></stop>
        </linearGradient>
        <path d="M26.7514933,0 C19.7065273,0 13.0241626,0.87004893 7.93445739,2.44909863 L7.93445739,2.44909863 C2.8178568,4.03689742 -1.15122337e-15,6.13311587 -1.15122337e-15,8.35214569 L-1.15122337e-15,8.35214569 C-1.15122337e-15,10.5737678 2.82174528,12.6729026 7.94482669,14.2626457 L7.94482669,14.2626457 C13.0410127,15.8439637 19.7318024,16.7153088 26.7842214,16.7156328 L26.7842214,16.7156328 L26.8159774,16.7156328 C33.8599713,16.7156328 40.5423359,15.8455839 45.6320411,14.2665342 L45.6320411,14.2665342 C50.7489658,12.6787354 53.5664985,10.5821929 53.5664985,8.36348711 L53.5664985,8.36348711 C53.5664985,6.14186496 50.7450773,4.04305419 45.6216718,2.45298711 L45.6216718,2.45298711 C40.5254858,0.871345092 33.8359923,0.00032404057 26.7842214,0 L26.7842214,0 L26.7514933,0 Z M0.487032977,8.35214569 C0.487032977,4.16230112 12.7600696,0.487357017 26.7514933,0.487357017 L26.7514933,0.487357017 L26.7842214,0.487357017 C40.7918471,0.487357017 53.0794655,4.16780981 53.0794655,8.36348711 L53.0794655,8.36348711 C53.0794655,12.5533317 40.806753,16.2285998 26.8159774,16.2285998 L26.8159774,16.2285998 L26.7842214,16.2285998 C12.7756235,16.2282758 0.487032977,12.547823 0.487032977,8.35214569 L0.487032977,8.35214569 Z" id="path-7_mb1fgeqt-22"></path>
        <linearGradient x1="6.03721538e-05%" y1="50.0011608%" x2="100.000115%" y2="50.0011608%" id="linearGradient-7_mb1fgeqt-24">
            <stop stop-color="#FDA8FF" offset="0%"></stop>
            <stop stop-color="#029CFF" offset="100%"></stop>
        </linearGradient>
        <path d="M28.4235426,0 C20.9579719,0 13.8592152,0.772836759 8.43477603,2.17658051 L8.43477603,2.17658051 C2.99543103,3.58421274 1.15122337e-15,5.43966905 1.15122337e-15,7.40205874 L1.15122337e-15,7.40205874 C1.15122337e-15,9.36736479 3.00061568,11.2260615 8.44935786,12.6366101 L8.44935786,12.6366101 C13.8822221,14.0429462 20.9916722,14.8174031 28.4676121,14.8174031 L28.4676121,14.8174031 L28.5116817,14.8174031 C35.9766043,14.8174031 43.0743889,14.0445664 48.49818,12.6404986 L48.49818,12.6404986 C53.937849,11.2331904 56.9336041,9.37708601 56.9336041,7.4153444 L56.9336041,7.4153444 C56.9336041,5.45003834 53.9326644,3.5910176 48.4842462,2.18079304 L48.4842462,2.18079304 C43.051382,0.774132921 35.94258,0 28.4676121,0 L28.4676121,0 L28.4235426,0 Z M0.487357017,7.40205874 C0.487357017,4.13119323 11.9603374,0.487032977 28.4235426,0.487032977 L28.4235426,0.487032977 L28.4676121,0.487032977 C44.9560925,0.487032977 56.4462471,4.13832212 56.4462471,7.4153444 L56.4462471,7.4153444 C56.4462471,10.6862099 44.9739147,14.3303702 28.5116817,14.3303702 L28.5116817,14.3303702 L28.4676121,14.3303702 C11.9781597,14.3303702 0.487357017,10.679081 0.487357017,7.40205874 L0.487357017,7.40205874 Z" id="path-7_mb1fgeqt-25"></path>
        <linearGradient x1="5.69724358e-05%" y1="50.0001096%" x2="99.9995388%" y2="50.0001096%" id="linearGradient-7_mb1fgeqt-27">
            <stop stop-color="#FDA8FF" offset="0%"></stop>
            <stop stop-color="#029CFF" offset="100%"></stop>
        </linearGradient>
        <path d="M30.0904073,0 C13.7798252,0 2.30244673e-15,2.95492596 2.30244673e-15,6.45261987 L2.30244673e-15,6.45261987 C2.30244673e-15,9.95809075 13.8076927,12.9194975 30.1513269,12.9194975 L30.1513269,12.9194975 L30.2112745,12.9194975 C46.5208844,12.9194975 60.2997375,9.9648956 60.2997375,6.46720169 L60.2997375,6.46720169 C60.2997375,2.96205485 46.493665,0 30.1513269,0 L30.1513269,0 L30.0904073,0 Z M9.05401756,10.5339108 C3.68984997,9.39037167 0.487032977,7.86478867 0.487032977,6.45261987 L0.487032977,6.45261987 C0.487032977,5.04336743 3.68239704,3.52199695 9.03425109,2.38137415 L9.03425109,2.38137415 C14.768149,1.1597412 22.2460332,0.487357017 30.0904073,0.487357017 L30.0904073,0.487357017 L30.1513269,0.487357017 C38.0086627,0.487357017 45.5001566,1.16168544 51.246044,2.38591072 L51.246044,2.38591072 C56.6102116,3.52944989 59.8127046,5.05503289 59.8127046,6.46720169 L59.8127046,6.46720169 C59.8127046,7.87613009 56.6173405,9.39782461 51.2654864,10.5381234 L51.2654864,10.5381234 C45.5315886,11.7600804 38.0543524,12.4327886 30.2112745,12.4327886 L30.2112745,12.4327886 L30.1513269,12.4327886 C22.292695,12.4327886 14.7999049,11.7581361 9.05401756,10.5339108 L9.05401756,10.5339108 Z" id="path-7_mb1fgeqt-28"></path>
        <linearGradient x1="-5.37383052e-05%" y1="50.0001277%" x2="100.000105%" y2="50.0001277%" id="linearGradient-7_mb1fgeqt-30">
            <stop stop-color="#FDA8FF" offset="0%"></stop>
            <stop stop-color="#029CFF" offset="100%"></stop>
        </linearGradient>
        <path d="M31.7537076,2.30244673e-15 C14.5413206,2.30244673e-15 0,2.51973947 0,5.50285696 L0,5.50285696 C0,8.4943995 14.5782612,11.0215919 31.8347177,11.0219159 L31.8347177,11.0219159 L31.9157278,11.0219159 C49.1264946,11.0219159 63.666195,8.50217647 63.666195,5.51938303 L63.666195,5.51938303 C63.666195,2.52784049 49.089554,2.30244673e-15 31.8347177,2.30244673e-15 L31.8347177,2.30244673e-15 L31.7537076,2.30244673e-15 Z M9.53781013,8.90269062 C2.86484268,7.75299467 0.487032977,6.39267236 0.487032977,5.50285696 L0.487032977,5.50285696 C0.487032977,4.61563388 2.85771379,3.25984813 9.51156285,2.11404068 L9.51156285,2.11404068 C15.6038496,1.06512135 23.5029866,0.487357017 31.7537076,0.487357017 L31.7537076,0.487357017 L31.8347177,0.487357017 C40.1022888,0.487357017 48.0195721,1.0670656 54.129033,2.11954937 L54.129033,2.11954937 C60.8016764,3.26892127 63.179162,4.62924358 63.179162,5.51938303 L63.179162,5.51938303 C63.179162,6.40628207 60.8084812,7.76206781 54.1552802,8.90787527 L54.1552802,8.90787527 C48.0626694,9.95711863 40.1645046,10.534883 31.9157278,10.534883 L31.9157278,10.534883 L31.8347177,10.534883 C23.5658504,10.534883 15.647271,9.95549843 9.53781013,8.90269062 L9.53781013,8.90269062 Z" id="path-7_mb1fgeqt-31"></path>
        <linearGradient x1="0%" y1="50.001026%" x2="100.000201%" y2="50.001026%" id="linearGradient-7_mb1fgeqt-33">
            <stop stop-color="#FDA8FF" offset="0%"></stop>
            <stop stop-color="#029CFF" offset="100%"></stop>
        </linearGradient>
    </defs>
    <g id="页面" stroke="none" stroke-width="1" fill="none" fill-rule="evenodd">
        <g id="Scan" transform="translate(-60.000000, -15.000000)">
            <g id="编组" transform="translate(60.000000, 15.000000)">
                <g transform="translate(71.421037, 10.389616)" fill="currentColor">
                    <path d="M11.9690865,9.17844914 L11.9690865,5.18205679 L1.34703665,5.18205679 C0.604335663,5.18205679 0,4.57804517 0,3.83534419 L0,0.088139035 L1.09784945,0.088139035 L1.09784945,4.08420734 L11.9690865,4.08420734 L11.9690865,0.088139035 L13.066936,0.088139035 L13.066936,9.17844914 L11.9690865,9.17844914 Z" id="Fill-1"></path>
                    <path d="M21.8235491,5.20357309 L21.8280857,4.10604768 L29.6912541,4.14039598 L29.6863935,5.23759735 L21.8235491,5.20357309 Z M21.175468,9.15071127 C18.6729026,9.15071127 16.639224,7.11444033 16.639224,4.61187501 C16.639224,2.10930969 18.6751709,0.073362785 21.1777363,0.073362785 L29.6912541,0.110627451 L29.6863935,1.2084769 L21.175468,1.17121224 C19.2782104,1.17121224 17.7370735,2.71461747 17.7370735,4.61187501 C17.7370735,6.50913254 19.2804787,8.05286182 21.1777363,8.05286182 L29.6912541,8.08980244 L29.6863935,9.18765189 L21.175468,9.15071127 Z" id="Fill-3"></path>
                    <path d="M40.2190082,9.17844914 C39.8541385,9.17844914 39.5002862,9.02744624 39.2475346,8.76464933 L39.2096218,8.72511638 L34.0184919,0.590725959 L34.9436277,0 L40.2186842,8.2659509 L45.4921204,0.00226828399 L46.4172562,0.592670202 L41.2280706,8.72511638 L41.1904818,8.76432529 C40.9377302,9.02744624 40.5835539,9.17844914 40.2190082,9.17844914" id="Fill-5"></path>
                    <path d="M54.7646061,5.19155118 L54.7694667,4.09370173 L62.6326352,4.12805003 L62.6277746,5.22589948 L54.7646061,5.19155118 Z M54.116525,9.13868936 C51.6139597,9.13868936 49.5802811,7.10274246 49.5802811,4.5998531 C49.5802811,2.09728778 51.616552,0.0613408799 54.1187933,0.0613408799 L62.6326352,0.0986055454 L62.6277746,1.19613096 L54.116525,1.15919033 C52.2192675,1.15919033 50.6781305,2.70259556 50.6781305,4.5998531 C50.6781305,6.49711064 52.2215357,8.04083991 54.1187933,8.04083991 L62.6326352,8.07778054 L62.6277746,9.17562999 L54.116525,9.13868936 Z" id="Fill-7"></path>
                    <path d="M72.2654864,9.19870168 C71.5227855,9.19870168 70.9187738,8.59469006 70.9187738,7.85198907 L70.9187738,5.44274743 C70.9187738,4.70004645 71.5227855,4.09603482 72.2654864,4.09603482 L76.6338774,4.09603482 C77.4423586,4.09603482 78.0998369,3.43401994 78.0998369,2.62035407 L78.0998369,2.56980374 C78.0998369,2.19391668 77.9536946,1.84071246 77.6876573,1.57499919 C77.4225921,1.30928592 77.0690638,1.16281959 76.6931768,1.16281959 L67.2289239,1.16411575 L67.2289239,9.19870168 L66.1310744,9.19870168 L66.1310744,1.41330295 C66.1310744,0.670601959 66.735086,0.0662662965 67.477787,0.0662662965 L76.6928527,0.0652941748 C77.3626446,0.0652941748 77.9912833,0.325822793 78.4637345,0.798597984 C78.9371577,1.27169722 79.1976864,1.900984 79.1976864,2.56980374 L79.1976864,2.62035407 C79.1976864,4.03932772 78.0476664,5.19388427 76.6338774,5.19388427 L72.0162992,5.19388427 L72.0162992,8.10085223 L78.8214752,8.10085223 L78.8214752,9.19870168 L72.2654864,9.19870168 Z" id="Fill-9"></path>
                    <path d="M84.4570268,9.17433383 C83.7143258,9.17433383 83.1103142,8.5703222 83.1103142,7.82762122 L83.1103142,0.08985645 L84.2081637,0.08985645 L84.2081637,8.07680842 L96.1266999,8.07680842 L96.1266999,9.17433383 L84.4570268,9.17433383 Z" id="Fill-11"></path>
                    <path d="M112.01078,9.17433383 L112.01078,5.61604433 L104.031605,5.61604433 L104.031605,4.51819488 L112.01078,4.51819488 L112.01078,1.18738186 L101.139543,1.18738186 L101.139543,9.17433383 L100.042017,9.17433383 L100.042017,1.43624502 C100.042017,0.693868072 100.646029,0.08985645 101.38873,0.08985645 L111.761593,0.08985645 C112.504294,0.08985645 113.108629,0.693868072 113.108629,1.43624502 L113.108629,9.17433383 L112.01078,9.17433383 Z" id="Fill-13"></path>
                    <path d="M128.742064,9.22086605 C128.525929,9.22086605 128.316274,9.16869552 128.11861,9.06597466 L128.068383,9.04005141 L118.118718,0.887838757 L118.118718,9.17712058 L117.021192,9.17712058 L117.021192,1.39236992 C117.021192,0.91765049 117.263575,0.487000572 117.669273,0.240729739 C117.882168,0.111761593 118.123578,0.0433890323 118.366933,0.0433890323 C118.583716,0.0433890323 118.793046,0.0952355235 118.990063,0.197632344 L119.039965,0.223555589 L128.989955,8.37641633 L128.989955,0.0871345092 L130.087804,0.0871345092 L130.087804,7.87188516 C130.087804,8.34660459 129.845422,8.77693047 129.439723,9.0232013 C129.226504,9.15249349 128.985418,9.22086605 128.742064,9.22086605" id="Fill-15"></path>
                    <path d="M134.00027,9.17844914 L134.00027,4.48990614 L135.098119,4.48990614 L135.098119,8.08059969 L142.549432,8.08059969 C144.44669,8.08059969 145.990419,6.53719446 145.990419,4.63993692 C145.990419,2.74267938 144.44669,1.19895011 142.549432,1.19895011 L134.00027,1.19895011 L134.00027,0.101424698 L142.549432,0.101424698 C145.051998,0.101424698 147.087945,2.1373716 147.087945,4.63993692 C147.087945,7.14250224 145.051998,9.17844914 142.549432,9.17844914 L134.00027,9.17844914 Z" id="Fill-17"></path>
                </g>
                <g transform="translate(16.832611, 0.000000)">
                    <mask id="mask-7_mb1fgeqt-2" fill="white">
                        <use xlink:href="#path-7_mb1fgeqt-1"></use>
                    </mask>
                    <g id="Clip-20"></g>
                    <path d="M15.000162,0 C6.72902647,0 0,6.72870243 0,14.999838 L0,14.999838 C0,23.2712976 6.72902647,30 15.000162,30 L15.000162,30 C23.2712976,30 30.000324,23.2712976 30.000324,14.999838 L30.000324,14.999838 C30.000324,6.72870243 23.2712976,0 15.000162,0 Z M0.487032977,14.999838 C0.487032977,6.99765611 6.99765611,0.487032977 15.000162,0.487032977 L15.000162,0.487032977 C23.002992,0.487032977 29.5132911,6.99765611 29.5132911,14.999838 L29.5132911,14.999838 C29.5132911,23.0023439 23.002992,29.512967 15.000162,29.512967 L15.000162,29.512967 C6.99765611,29.512967 0.487032977,23.0023439 0.487032977,14.999838 L0.487032977,14.999838 Z" id="Fill-19" fill="url(#linearGradient-7_mb1fgeqt-3)" mask="url(#mask-7_mb1fgeqt-2)"></path>
                </g>
                <g transform="translate(15.149221, 0.948467)">
                    <mask id="mask-7_mb1fgeqt-5" fill="white">
                        <use xlink:href="#path-7_mb1fgeqt-4"></use>
                    </mask>
                    <g id="Clip-22"></g>
                    <path d="M2.30244673e-15,14.0503991 C2.30244673e-15,21.7985332 7.48436504,28.1020944 16.685173,28.1020944 L16.685173,28.1020944 L16.6858211,27.8587399 L16.6858211,28.1020944 C25.8837126,28.1020944 33.3671056,21.7995053 33.3671056,14.0516953 L33.3671056,14.0516953 C33.3671056,6.30356121 25.8827405,0 16.6816085,0 L16.6816085,0 C7.48339292,0 2.30244673e-15,6.30258908 2.30244673e-15,14.0503991 L2.30244673e-15,14.0503991 Z M16.6838768,27.6153854 C7.75299467,27.6150614 0.487032977,21.5295795 0.487032977,14.0503991 L0.487032977,14.0503991 C0.487032977,6.57121872 7.75202255,0.487032977 16.6838768,0.487032977 L16.6838768,0.487032977 C25.6144349,0.487032977 32.8800726,6.57219084 32.8800726,14.0516953 L32.8800726,14.0516953 C32.8800726,21.5308757 25.615083,27.6153854 16.6858211,27.6153854 L16.6858211,27.6153854 L16.6858211,27.8587399 L16.6838768,27.6153854 Z" id="Fill-21" fill="url(#linearGradient-7_mb1fgeqt-6)" mask="url(#mask-7_mb1fgeqt-5)"></path>
                </g>
                <g transform="translate(13.466154, 1.897258)">
                    <mask id="mask-7_mb1fgeqt-8" fill="white">
                        <use xlink:href="#path-7_mb1fgeqt-7"></use>
                    </mask>
                    <g id="Clip-24"></g>
                    <path d="M-2.30244673e-15,13.0999881 C-2.30244673e-15,20.3257688 8.23937957,26.2041888 18.3672676,26.2041888 L18.3672676,26.2041888 L18.3714801,26.2041888 C28.4964518,26.2041888 36.733563,20.327389 36.733563,13.1035526 L36.733563,13.1035526 C36.733563,5.87841998 28.4941835,0 18.3630551,0 L18.3630551,0 C8.23743533,0 -2.30244673e-15,5.87679978 -2.30244673e-15,13.0999881 M0.487032977,13.0999881 C0.487032977,6.14510537 8.506389,0.486708936 18.3672676,0.486708936 L18.3672676,0.486708936 C28.2258779,0.486708936 36.2465301,6.14672557 36.2465301,13.1035526 L36.2465301,13.1035526 C36.2465301,20.0587594 28.2278221,25.7171558 18.3714801,25.7171558 L18.3714801,25.7171558 L18.3672676,25.7171558 C8.5080092,25.7171558 0.487032977,20.0574632 0.487032977,13.0999881" id="Fill-23" fill="url(#linearGradient-7_mb1fgeqt-9)" mask="url(#mask-7_mb1fgeqt-8)"></path>
                </g>
                <g transform="translate(11.782763, 2.845400)">
                    <mask id="mask-7_mb1fgeqt-11" fill="white">
                        <use xlink:href="#path-7_mb1fgeqt-10"></use>
                    </mask>
                    <g id="Clip-26"></g>
                    <path d="M-2.30244673e-15,12.1511973 C-2.30244673e-15,18.8536525 8.99471814,24.3069312 20.0506583,24.3069312 L20.0506583,24.3069312 L20.0577872,24.3069312 C31.1091909,24.3069312 40.1003446,18.8562448 40.1003446,12.1557339 L40.1003446,12.1557339 C40.1003446,5.45327875 31.1059505,0 20.0435294,0 L20.0435294,0 C8.99147773,0 -2.30244673e-15,5.45068643 -2.30244673e-15,12.1511973 M0.487032977,12.1511973 C0.487032977,5.7196401 9.26010737,0.487357017 20.0506583,0.487357017 L20.0506583,0.487357017 C30.8373208,0.487357017 39.6129875,5.72190838 39.6129875,12.1557339 L39.6129875,12.1557339 C39.6129875,18.5872911 30.8405612,23.8195742 20.0577872,23.8195742 L20.0577872,23.8195742 L20.0506583,23.8195742 C9.26334777,23.8195742 0.487032977,18.5853469 0.487032977,12.1511973" id="Fill-25" fill="url(#linearGradient-7_mb1fgeqt-12)" mask="url(#mask-7_mb1fgeqt-11)"></path>
                </g>
                <g transform="translate(10.099696, 3.793867)">
                    <mask id="mask-7_mb1fgeqt-14" fill="white">
                        <use xlink:href="#path-7_mb1fgeqt-13"></use>
                    </mask>
                    <g id="Clip-28"></g>
                    <path d="M-2.30244673e-15,11.2014344 C-2.30244673e-15,17.3812121 9.74973267,22.4090256 21.7340491,22.4093497 L21.7340491,22.4093497 L21.7447424,22.4093497 C33.7225781,22.4093497 43.466802,17.3844525 43.466802,11.2079152 L43.466802,11.2079152 C43.466802,5.02813752 33.7173934,0 21.7223836,0 L21.7223836,0 C9.74487206,0 -2.30244673e-15,5.02522116 -2.30244673e-15,11.2014344 L-2.30244673e-15,11.2014344 Z M21.7340491,21.9223167 C16.0526458,21.9223167 10.695283,20.7781294 6.64898845,18.7013534 L6.64898845,18.7013534 C2.67527894,16.6618421 0.487032977,13.9982286 0.487032977,11.2014344 L0.487032977,11.2014344 C0.487032977,8.40626046 2.67430682,5.74426718 6.64574805,3.706052 L6.64574805,3.706052 C10.6894503,1.63024811 16.0438967,0.487357017 21.7340491,0.487357017 L21.7340491,0.487357017 C27.4148043,0.487357017 32.771519,1.63122023 36.8174895,3.70799624 L36.8174895,3.70799624 C40.7915231,5.74783163 42.979445,8.41112107 42.979445,11.2079152 L42.979445,11.2079152 C42.979445,14.0027651 40.7921712,16.6647584 36.82073,18.7036217 L36.82073,18.7036217 C32.7770277,20.7787775 27.4229053,21.9223167 21.7447424,21.9223167 L21.7447424,21.9223167 L21.7447424,22.1656711 L21.7340491,21.9223167 Z" id="Fill-27" fill="url(#linearGradient-7_mb1fgeqt-15)" mask="url(#mask-7_mb1fgeqt-14)"></path>
                </g>
                <g transform="translate(8.416306, 4.742658)">
                    <mask id="mask-7_mb1fgeqt-17" fill="white">
                        <use xlink:href="#path-7_mb1fgeqt-16"></use>
                    </mask>
                    <g id="Clip-30"></g>
                    <path d="M0,10.2513475 C0,15.9087718 10.5050712,20.510796 23.4174399,20.510796 L23.4174399,20.510796 L23.434614,20.510796 C36.3366133,20.510796 46.8335836,15.9123362 46.8335836,10.2597725 L46.8335836,10.2597725 C46.8335836,4.60234821 36.3291604,0 23.4005898,0 L23.4005898,0 C10.4979423,0 0,4.59878377 0,10.2513475 L0,10.2513475 Z M23.4174399,20.024087 C10.9878917,20.024087 0.487357017,15.5484387 0.487357017,10.2513475 L0.487357017,10.2513475 C0.487357017,4.9584688 10.9801147,0.487032977 23.4174399,0.487032977 L23.4174399,0.487032977 C35.846664,0.487032977 46.3465506,4.96235729 46.3465506,10.2597725 L46.3465506,10.2597725 C46.3465506,15.5526512 35.8537929,20.024087 23.434614,20.024087 L23.434614,20.024087 L23.434614,20.2677655 L23.4174399,20.024087 Z" id="Fill-29" fill="url(#linearGradient-7_mb1fgeqt-18)" mask="url(#mask-7_mb1fgeqt-17)"></path>
                </g>
                <g transform="translate(6.732915, 5.691125)">
                    <mask id="mask-7_mb1fgeqt-20" fill="white">
                        <use xlink:href="#path-7_mb1fgeqt-19"></use>
                    </mask>
                    <g id="Clip-32"></g>
                    <path d="M2.30244673e-15,9.30158456 C2.30244673e-15,14.4356833 11.2604098,18.6132144 25.1008306,18.6132144 L25.1008306,18.6132144 L25.1248096,18.6132144 C38.9512967,18.6132144 50.200041,14.440868 50.200041,9.31130578 L50.200041,9.31130578 C50.200041,4.17753103 38.9409274,0.00032404057 25.0778237,0 L25.0778237,0 C11.2500405,0 2.30244673e-15,4.17267042 2.30244673e-15,9.30158456 M0.487032977,9.30158456 C0.487032977,4.5239304 11.7484149,0.487032977 25.1008306,0.487032977 L25.1008306,0.487032977 C38.442229,0.487357017 49.7130081,4.52846696 49.7130081,9.31130578 L49.7130081,9.31130578 C49.7130081,14.089608 38.4529223,18.1261814 25.1248096,18.1261814 L25.1248096,18.1261814 L25.1008306,18.1261814 C11.7591082,18.1261814 0.487032977,14.0847474 0.487032977,9.30158456" id="Fill-31" fill="url(#linearGradient-7_mb1fgeqt-21)" mask="url(#mask-7_mb1fgeqt-20)"></path>
                </g>
                <g transform="translate(5.049848, 6.639591)">
                    <mask id="mask-7_mb1fgeqt-23" fill="white">
                        <use xlink:href="#path-7_mb1fgeqt-22"></use>
                    </mask>
                    <g id="Clip-34"></g>
                    <path d="M26.7514933,0 C19.7065273,0 13.0241626,0.87004893 7.93445739,2.44909863 L7.93445739,2.44909863 C2.8178568,4.03689742 -1.15122337e-15,6.13311587 -1.15122337e-15,8.35214569 L-1.15122337e-15,8.35214569 C-1.15122337e-15,10.5737678 2.82174528,12.6729026 7.94482669,14.2626457 L7.94482669,14.2626457 C13.0410127,15.8439637 19.7318024,16.7153088 26.7842214,16.7156328 L26.7842214,16.7156328 L26.8159774,16.7156328 C33.8599713,16.7156328 40.5423359,15.8455839 45.6320411,14.2665342 L45.6320411,14.2665342 C50.7489658,12.6787354 53.5664985,10.5821929 53.5664985,8.36348711 L53.5664985,8.36348711 C53.5664985,6.14186496 50.7450773,4.04305419 45.6216718,2.45298711 L45.6216718,2.45298711 C40.5254858,0.871345092 33.8359923,0.00032404057 26.7842214,0 L26.7842214,0 L26.7514933,0 Z M0.487032977,8.35214569 C0.487032977,4.16230112 12.7600696,0.487357017 26.7514933,0.487357017 L26.7514933,0.487357017 L26.7842214,0.487357017 C40.7918471,0.487357017 53.0794655,4.16780981 53.0794655,8.36348711 L53.0794655,8.36348711 C53.0794655,12.5533317 40.806753,16.2285998 26.8159774,16.2285998 L26.8159774,16.2285998 L26.7842214,16.2285998 C12.7756235,16.2282758 0.487032977,12.547823 0.487032977,8.35214569 L0.487032977,8.35214569 Z" id="Fill-33" fill="url(#linearGradient-7_mb1fgeqt-24)" mask="url(#mask-7_mb1fgeqt-23)"></path>
                </g>
                <g transform="translate(3.366457, 7.588382)">
                    <mask id="mask-7_mb1fgeqt-26" fill="white">
                        <use xlink:href="#path-7_mb1fgeqt-25"></use>
                    </mask>
                    <g id="Clip-36"></g>
                    <path d="M28.4235426,0 C20.9579719,0 13.8592152,0.772836759 8.43477603,2.17658051 L8.43477603,2.17658051 C2.99543103,3.58421274 1.15122337e-15,5.43966905 1.15122337e-15,7.40205874 L1.15122337e-15,7.40205874 C1.15122337e-15,9.36736479 3.00061568,11.2260615 8.44935786,12.6366101 L8.44935786,12.6366101 C13.8822221,14.0429462 20.9916722,14.8174031 28.4676121,14.8174031 L28.4676121,14.8174031 L28.5116817,14.8174031 C35.9766043,14.8174031 43.0743889,14.0445664 48.49818,12.6404986 L48.49818,12.6404986 C53.937849,11.2331904 56.9336041,9.37708601 56.9336041,7.4153444 L56.9336041,7.4153444 C56.9336041,5.45003834 53.9326644,3.5910176 48.4842462,2.18079304 L48.4842462,2.18079304 C43.051382,0.774132921 35.94258,0 28.4676121,0 L28.4676121,0 L28.4235426,0 Z M0.487357017,7.40205874 C0.487357017,4.13119323 11.9603374,0.487032977 28.4235426,0.487032977 L28.4235426,0.487032977 L28.4676121,0.487032977 C44.9560925,0.487032977 56.4462471,4.13832212 56.4462471,7.4153444 L56.4462471,7.4153444 C56.4462471,10.6862099 44.9739147,14.3303702 28.5116817,14.3303702 L28.5116817,14.3303702 L28.4676121,14.3303702 C11.9781597,14.3303702 0.487357017,10.679081 0.487357017,7.40205874 L0.487357017,7.40205874 Z" id="Fill-35" fill="url(#linearGradient-7_mb1fgeqt-27)" mask="url(#mask-7_mb1fgeqt-26)"></path>
                </g>
                <g transform="translate(1.683391, 8.536849)">
                    <mask id="mask-7_mb1fgeqt-29" fill="white">
                        <use xlink:href="#path-7_mb1fgeqt-28"></use>
                    </mask>
                    <g id="Clip-38"></g>
                    <path d="M30.0904073,0 C13.7798252,0 2.30244673e-15,2.95492596 2.30244673e-15,6.45261987 L2.30244673e-15,6.45261987 C2.30244673e-15,9.95809075 13.8076927,12.9194975 30.1513269,12.9194975 L30.1513269,12.9194975 L30.2112745,12.9194975 C46.5208844,12.9194975 60.2997375,9.9648956 60.2997375,6.46720169 L60.2997375,6.46720169 C60.2997375,2.96205485 46.493665,0 30.1513269,0 L30.1513269,0 L30.0904073,0 Z M9.05401756,10.5339108 C3.68984997,9.39037167 0.487032977,7.86478867 0.487032977,6.45261987 L0.487032977,6.45261987 C0.487032977,5.04336743 3.68239704,3.52199695 9.03425109,2.38137415 L9.03425109,2.38137415 C14.768149,1.1597412 22.2460332,0.487357017 30.0904073,0.487357017 L30.0904073,0.487357017 L30.1513269,0.487357017 C38.0086627,0.487357017 45.5001566,1.16168544 51.246044,2.38591072 L51.246044,2.38591072 C56.6102116,3.52944989 59.8127046,5.05503289 59.8127046,6.46720169 L59.8127046,6.46720169 C59.8127046,7.87613009 56.6173405,9.39782461 51.2654864,10.5381234 L51.2654864,10.5381234 C45.5315886,11.7600804 38.0543524,12.4327886 30.2112745,12.4327886 L30.2112745,12.4327886 L30.1513269,12.4327886 C22.292695,12.4327886 14.7999049,11.7581361 9.05401756,10.5339108 L9.05401756,10.5339108 Z" id="Fill-37" fill="url(#linearGradient-7_mb1fgeqt-30)" mask="url(#mask-7_mb1fgeqt-29)"></path>
                </g>
                <g transform="translate(0.000000, 9.485316)">
                    <mask id="mask-7_mb1fgeqt-32" fill="white">
                        <use xlink:href="#path-7_mb1fgeqt-31"></use>
                    </mask>
                    <g id="Clip-40"></g>
                    <path d="M31.7537076,2.30244673e-15 C14.5413206,2.30244673e-15 0,2.51973947 0,5.50285696 L0,5.50285696 C0,8.4943995 14.5782612,11.0215919 31.8347177,11.0219159 L31.8347177,11.0219159 L31.9157278,11.0219159 C49.1264946,11.0219159 63.666195,8.50217647 63.666195,5.51938303 L63.666195,5.51938303 C63.666195,2.52784049 49.089554,2.30244673e-15 31.8347177,2.30244673e-15 L31.8347177,2.30244673e-15 L31.7537076,2.30244673e-15 Z M9.53781013,8.90269062 C2.86484268,7.75299467 0.487032977,6.39267236 0.487032977,5.50285696 L0.487032977,5.50285696 C0.487032977,4.61563388 2.85771379,3.25984813 9.51156285,2.11404068 L9.51156285,2.11404068 C15.6038496,1.06512135 23.5029866,0.487357017 31.7537076,0.487357017 L31.7537076,0.487357017 L31.8347177,0.487357017 C40.1022888,0.487357017 48.0195721,1.0670656 54.129033,2.11954937 L54.129033,2.11954937 C60.8016764,3.26892127 63.179162,4.62924358 63.179162,5.51938303 L63.179162,5.51938303 C63.179162,6.40628207 60.8084812,7.76206781 54.1552802,8.90787527 L54.1552802,8.90787527 C48.0626694,9.95711863 40.1645046,10.534883 31.9157278,10.534883 L31.9157278,10.534883 L31.8347177,10.534883 C23.5658504,10.534883 15.647271,9.95549843 9.53781013,8.90269062 L9.53781013,8.90269062 Z" id="Fill-39" fill="url(#linearGradient-7_mb1fgeqt-33)" mask="url(#mask-7_mb1fgeqt-32)"></path>
                </g>
            </g>
        </g>
    </g>
</svg>